<svg xmlns="http://www.w3.org/2000/svg" width="665" height="535" viewBox="0 0 665 535" version="1.1"><path d="M 321.340 99.383 C 311.499 102.583, 306.672 109.252, 306.643 119.689 C 306.626 125.450, 306.452 125.921, 304.123 126.505 C 296.757 128.354, 292.059 135.645, 292.022 145.282 C 291.995 152.294, 293.610 156.424, 298.102 160.838 C 308.299 170.856, 315.195 169.241, 317.901 156.200 C 319.125 150.297, 321.078 146.010, 323.431 144.058 C 324.755 142.958, 325.585 143.295, 328.884 146.276 C 335.150 151.937, 342.081 152.327, 347.994 147.352 L 350.939 144.873 352.095 149.463 C 353.379 154.564, 356.856 158, 360.734 158 C 362.182 158, 364.353 159.237, 366 161 C 367.857 162.988, 369.772 164, 371.679 164 C 376.502 164, 379.001 166.495, 378.996 171.307 C 378.992 176.175, 376.450 180.868, 372.060 184.114 C 369.384 186.092, 369 186.980, 369 191.188 C 369 196.421, 369.321 196.629, 374.917 195.024 C 380.917 193.303, 383.395 189.939, 385.429 180.750 C 385.764 179.238, 386.651 178, 387.400 178 C 389.627 178, 394.845 171.972, 396.603 167.370 C 398.636 162.047, 397.868 157.185, 394.331 152.981 L 391.741 149.904 393.804 147.702 C 398.386 142.811, 399.389 133.791, 395.974 128.190 C 393.603 124.300, 388.020 121.662, 383.320 122.211 C 380.061 122.591, 380 122.526, 380 118.700 C 380 110.582, 372.793 101.817, 365.041 100.507 C 361.520 99.912, 359.852 100.290, 354.603 102.875 C 351.166 104.567, 347.542 106.849, 346.548 107.947 C 344.760 109.923, 344.712 109.903, 341.891 106.008 C 340.323 103.843, 337.989 101.384, 336.705 100.542 C 333.360 98.351, 326.180 97.809, 321.340 99.383 M 377.332 224.187 C 373.399 231.672, 368.112 236.896, 361 240.322 C 357.307 242.102, 354.702 242.491, 346.479 242.495 C 337.170 242.500, 335.984 242.267, 329.794 239.219 C 322.790 235.771, 315.678 228.907, 311.660 221.718 C 309.589 218.013, 309.329 217.876, 305.375 218.390 C 292.940 220.009, 268.487 230.310, 261.621 236.821 C 255.539 242.590, 246.891 254.709, 237.409 270.752 C 224.510 292.576, 216.963 304, 215.446 304 C 214.042 304, 203.943 291.878, 190.579 274.151 L 182.777 263.802 178.639 267.730 C 176.362 269.891, 170.571 275.448, 165.770 280.079 L 157.039 288.500 160.466 296.168 C 180.160 340.245, 198.173 369.070, 207.482 371.406 C 211.462 372.405, 219.216 368.372, 228.250 360.605 L 236 353.941 236 342.996 L 236 332.051 220.364 331.775 L 204.727 331.500 219.823 314.760 C 228.125 305.554, 235.404 297.114, 235.997 296.006 C 237.069 294.003, 237.698 293.993, 348.263 294.246 L 459.452 294.500 475.709 312.500 C 484.651 322.400, 491.974 330.837, 491.983 331.250 C 491.993 331.663, 484.790 332, 475.978 332 L 459.957 332 460.228 351.250 L 460.500 370.500 464.252 372.333 C 468.786 374.549, 475.738 374.706, 479.639 372.681 C 483.090 370.890, 493.870 359.762, 500.158 351.500 C 510.030 338.529, 537.957 294.489, 540.480 287.912 C 540.896 286.828, 537.388 282.768, 528.987 274.610 C 522.336 268.152, 516.524 263.010, 516.072 263.184 C 515.619 263.358, 509.824 270.475, 503.195 279 C 489.467 296.653, 477.831 309.444, 476.041 308.847 C 474.429 308.310, 470.901 301.665, 462.584 283.500 C 447.475 250.500, 439.668 236.946, 432.983 232.103 C 425.643 226.785, 409.028 221.608, 389.733 218.626 L 380.966 217.272 377.332 224.187 M 419.041 389.250 L 419 455 374.500 455 L 330 455 330 393.500 L 330 332 311 332 L 292 332 292 393.500 L 292 455 265.200 455 C 245.689 455, 238.074 454.674, 237.200 453.800 C 236.310 452.910, 236 443.089, 236 415.800 L 236 379 220.155 379 C 205.950 379, 204.135 379.193, 202.619 380.869 C 201.084 382.565, 200.954 386.091, 201.214 418.870 L 201.500 455.001 136.750 455.001 C 79.861 455, 72 455.182, 72 456.500 C 72 457.829, 101.111 458, 328 458 C 554.889 458, 584 457.829, 584 456.500 C 584 455.185, 576.887 454.992, 526.250 454.932 C 486.524 454.886, 469.280 454.551, 471 453.860 C 485.024 448.226, 492.062 442.271, 496.837 432 C 500.439 424.250, 501.026 411.819, 498.171 403.725 C 492.990 389.038, 479.833 378.776, 464.988 377.844 L 459.500 377.500 459 416 L 458.500 454.500 447.750 454.784 L 437 455.068 437 393.534 L 437 332 431.886 332 C 427.139 332, 426.496 331.695, 422.927 327.750 L 419.082 323.500 419.041 389.250" stroke="none" fill="#bb5242" fill-rule="evenodd"/><path d="M 317.778 98.823 C 315.084 99.892, 309.101 105.904, 307.337 109.316 C 306.457 111.018, 305.510 115.231, 305.233 118.680 C 304.809 123.964, 304.397 125.051, 302.615 125.588 C 296.625 127.392, 290.971 136.475, 291.153 144 L 291.262 148.500 291.974 143 C 293.150 133.922, 297.362 128.202, 304.123 126.505 C 306.452 125.921, 306.626 125.450, 306.643 119.689 C 306.672 109.233, 311.564 102.492, 321.340 99.435 C 325.134 98.248, 325.236 98.134, 322.500 98.137 C 320.850 98.139, 318.725 98.448, 317.778 98.823 M 361.500 99.432 C 364.353 100.716, 370.242 101.842, 369.329 100.929 C 368.778 100.378, 366.566 99.715, 364.414 99.455 C 362.261 99.195, 360.950 99.184, 361.500 99.432 M 340.301 104.038 C 342.335 106.415, 344 108.807, 344 109.354 C 344 109.901, 345.012 109.404, 346.250 108.249 C 347.488 107.094, 350.525 104.996, 353 103.586 C 355.475 102.177, 356.983 101.019, 356.350 101.012 C 355.718 101.005, 352.947 102.517, 350.193 104.370 L 345.184 107.741 343.086 104.902 C 341.931 103.341, 340 101.535, 338.794 100.890 C 337.195 100.034, 337.603 100.887, 340.301 104.038 M 373.689 105.117 C 375.443 106.978, 377.578 109.850, 378.433 111.500 C 379.288 113.150, 379.990 113.878, 379.994 113.118 C 380.004 110.828, 376.145 105.321, 373.232 103.470 C 370.623 101.812, 370.644 101.886, 373.689 105.117 M 394.610 125.951 C 395.221 126.803, 396.219 128.400, 396.830 129.500 C 397.440 130.600, 397.953 130.963, 397.970 130.306 C 397.986 129.649, 396.988 128.052, 395.750 126.757 C 394.512 125.462, 394 125.099, 394.610 125.951 M 322.783 144.750 C 320.338 147.554, 319.087 150.483, 317.906 156.173 C 315.401 168.246, 309.710 170.515, 300.452 163.133 C 299.325 162.235, 299.775 162.757, 301.452 164.294 C 305.853 168.328, 306.727 168.940, 307.288 168.379 C 307.564 168.103, 308.112 170.717, 308.507 174.189 C 309.727 184.923, 313.708 198.844, 316.965 203.761 C 320.716 209.425, 320.922 213.786, 317.584 216.921 C 315.370 219.001, 314.874 219.084, 311.637 217.913 C 303.991 215.148, 276.427 223.725, 263.719 232.824 C 256.376 238.081, 255.027 239.653, 245.118 254.496 C 239.242 263.298, 230.201 277.595, 225.027 286.268 L 215.620 302.035 211.700 298.268 C 207.802 294.522, 192.917 275.410, 187.507 267.206 C 185.085 263.532, 184.301 262.995, 182.077 263.483 C 179.911 263.959, 178.647 263.197, 174.489 258.909 C 171.745 256.079, 167.219 252.733, 164.432 251.475 C 158.265 248.690, 134.631 242, 130.959 242 C 126.737 242, 123.015 247.655, 126.016 249.510 C 128.344 250.949, 125.461 252, 119.191 251.999 C 111.162 251.997, 96.991 249.636, 94.073 247.813 C 91.151 245.988, 86.500 248.549, 86.500 251.982 C 86.500 257.143, 103.234 262.571, 123.678 264.042 C 143.109 265.440, 146.154 266.296, 153.260 272.358 C 156.575 275.186, 159.950 278.508, 160.759 279.739 C 162.130 281.827, 162.019 282.164, 159.115 284.712 C 157.402 286.215, 156 287.760, 156 288.146 C 156 288.531, 159.394 296.337, 163.542 305.494 C 171.315 322.653, 183.279 344.962, 190.359 355.500 C 196.043 363.960, 203.861 372.001, 206.395 371.994 C 208.149 371.989, 208 371.732, 205.500 370.453 C 195.946 365.567, 178.941 337.517, 160.466 296.168 L 157.039 288.500 165.770 280.079 C 170.571 275.448, 176.362 269.891, 178.639 267.730 L 182.777 263.802 190.579 274.151 C 203.943 291.878, 214.042 304, 215.446 304 C 216.963 304, 224.510 292.576, 237.409 270.752 C 246.891 254.709, 255.539 242.590, 261.621 236.821 C 268.487 230.310, 292.940 220.009, 305.375 218.390 C 309.329 217.876, 309.589 218.013, 311.660 221.718 C 315.678 228.907, 322.790 235.771, 329.794 239.219 C 335.984 242.267, 337.170 242.500, 346.479 242.495 C 357.771 242.490, 362.218 240.977, 369.599 234.628 C 373.701 231.100, 382.064 217, 380.055 217 C 379.475 217, 379 217.724, 379 218.608 C 379 219.863, 378.395 220.066, 376.250 219.530 C 369.411 217.824, 367.463 212.218, 368.427 197.024 C 369.089 186.595, 369.108 186.535, 372.567 183.684 C 377.010 180.022, 379 176.131, 379 171.106 C 379 166.507, 376.417 164, 371.679 164 C 369.772 164, 367.857 162.988, 366 161 C 364.353 159.237, 362.182 158, 360.734 158 C 356.856 158, 353.379 154.564, 352.095 149.463 L 350.939 144.873 347.940 147.397 C 342.092 152.318, 333.986 151.726, 328.478 145.977 C 325.148 142.502, 324.809 142.428, 322.783 144.750 M 430.010 230.250 C 435.834 233.742, 440.804 239.609, 445.435 248.460 C 447.029 251.507, 448.526 253.807, 448.763 253.571 C 448.999 253.334, 447.695 250.332, 445.865 246.898 C 441.808 239.287, 433.671 230.178, 429.294 228.350 C 424.004 226.139, 424.252 226.798, 430.010 230.250 M 548.006 246.642 C 533.103 250.288, 528.480 252.565, 522.076 259.409 C 520.647 260.935, 518.562 262, 517.001 262 C 514.749 262, 512.707 264.212, 503.425 276.704 C 497.416 284.791, 490.025 294.129, 487 297.454 C 478.661 306.621, 476.857 309.438, 484.409 301.500 C 488.072 297.650, 496.509 287.525, 503.158 279 C 509.808 270.475, 515.619 263.358, 516.072 263.184 C 516.524 263.010, 522.403 268.185, 529.135 274.684 C 537.594 282.850, 540.685 285.359, 539.140 282.805 L 536.905 279.111 540.703 274.895 C 546.260 268.726, 550.699 267.172, 567.629 265.470 C 582.460 263.980, 593.847 261.706, 604 258.209 C 608.142 256.783, 609.728 255.674, 610.422 253.717 C 612.371 248.225, 606.608 246.472, 596.591 249.511 C 593.467 250.459, 587.503 251, 580.186 251 C 568.901 251, 568.722 250.965, 570.433 249.074 C 571.391 248.015, 572.019 246.328, 571.829 245.324 C 571.260 242.332, 563.975 242.734, 548.006 246.642 M 457 271.141 C 457 271.813, 469.260 297.992, 472.235 303.672 C 473.598 306.275, 475.145 308.548, 475.672 308.724 C 476.199 308.900, 472.381 300.596, 467.188 290.272 C 458.039 272.083, 457 270.132, 457 271.141 M 235.997 296.006 C 235.404 297.114, 228.125 305.554, 219.823 314.760 L 204.727 331.500 220.364 331.775 L 236 332.051 236 342.996 L 236 353.941 228.250 360.600 C 223.988 364.262, 218.250 368.321, 215.500 369.620 C 212.750 370.918, 211.080 371.985, 211.790 371.990 C 214.310 372.009, 220.601 368.107, 227.750 362.089 L 235 355.986 235 366.993 L 235 378 206.750 378.011 C 191.213 378.017, 176.774 378.307, 174.665 378.656 L 170.831 379.289 171.165 415.645 L 171.500 452.001 121.750 452 C 78.194 452, 72 452.187, 72 453.500 C 72 454.818, 79.861 455, 136.750 455.001 L 201.500 455.001 201.214 418.870 C 200.954 386.091, 201.084 382.565, 202.619 380.869 C 204.135 379.193, 205.950 379, 220.155 379 L 236 379 236 415.800 C 236 443.089, 236.310 452.910, 237.200 453.800 C 238.074 454.674, 245.689 455, 265.200 455 L 292 455 292 393.500 L 292 332 311 332 L 330 332 330 393.500 L 330 455 374.500 455 L 419 455 419.041 389.250 L 419.082 323.500 422.927 327.750 C 426.496 331.695, 427.139 332, 431.886 332 L 437 332 437 393.534 L 437 455.068 447.750 454.784 L 458.500 454.500 458.762 416.538 C 458.906 395.659, 459.400 378.200, 459.859 377.741 C 461.249 376.351, 473.017 378.774, 478.938 381.668 C 491.366 387.744, 498.869 399.431, 500.014 414.500 L 500.699 423.500 500.849 415.788 C 501.167 399.552, 494.118 389.306, 474.402 377.346 C 472.595 376.251, 472.625 376.143, 475 375.204 C 477.190 374.338, 476.912 374.212, 472.752 374.191 C 470.141 374.178, 466.316 373.342, 464.252 372.333 L 460.500 370.500 460.228 351.250 L 459.957 332 475.978 332 C 484.790 332, 491.993 331.663, 491.983 331.250 C 491.974 330.837, 484.651 322.400, 475.709 312.500 L 459.452 294.500 348.263 294.246 C 237.698 293.993, 237.069 294.003, 235.997 296.006 M 522.341 318.750 C 520.715 321.363, 518.571 324.738, 517.577 326.250 C 516.583 327.762, 515.983 329, 516.243 329 C 516.762 329, 522.959 319.844, 524.872 316.250 C 526.991 312.272, 525.392 313.851, 522.341 318.750 M 504.363 345.657 C 496.729 356.427, 485.079 369.366, 480.500 372.161 C 478.850 373.168, 478.001 373.994, 478.614 373.996 C 480.708 374.003, 487.905 367.507, 494.884 359.311 C 501.291 351.786, 512.635 336, 511.635 336 C 511.400 336, 508.128 340.346, 504.363 345.657 M 558.886 452.448 C 558.640 452.694, 538.820 452.970, 514.843 453.062 C 490.865 453.154, 470.629 453.621, 469.874 454.099 C 469.085 454.599, 493.099 454.976, 526.250 454.985 C 576.923 454.998, 584 454.816, 584 453.500 C 584 452.248, 581.963 452, 571.667 452 C 564.883 452, 559.132 452.201, 558.886 452.448 M 72 469 L 72 480 328 480 L 584 480 584 469 L 584 458 328 458 L 72 458 72 469" stroke="none" fill="#f1e9e1" fill-rule="evenodd"/></svg>