<?xml version="1.0" standalone="no"?>
<!DOCTYPE svg PUBLIC "-//W3C//DTD SVG 20010904//EN"
 "http://www.w3.org/TR/2001/REC-SVG-20010904/DTD/svg10.dtd">
<svg version="1.0" xmlns="http://www.w3.org/2000/svg"
 width="512.000000pt" height="512.000000pt" viewBox="0 0 512.000000 512.000000"
 preserveAspectRatio="xMidYMid meet">

<g transform="translate(0.000000,512.000000) scale(0.100000,-0.100000)"
fill="#000000" stroke="none">
<path d="M2420 4954 c-200 -26 -408 -102 -565 -207 -83 -56 -108 -77 -203
-170 -172 -170 -294 -396 -348 -647 -26 -119 -26 -381 0 -500 110 -512 494
-896 1006 -1006 119 -26 381 -26 500 0 513 111 895 493 1006 1006 26 119 26
381 0 500 -111 513 -494 896 -1006 1006 -73 15 -320 27 -390 18z"/>
<path d="M1396 2414 c-440 -247 -767 -592 -986 -1039 -159 -323 -242 -654
-244 -977 -1 -149 4 -165 68 -212 l27 -21 2299 0 2299 0 27 21 c64 47 69 63
68 212 -2 327 -91 676 -253 997 -123 242 -262 436 -445 619 -161 160 -385 327
-568 421 l-76 39 -59 -45 c-208 -162 -428 -264 -693 -320 -152 -33 -448 -33
-600 0 -264 56 -519 175 -698 325 -24 20 -49 36 -56 36 -6 0 -56 -25 -110 -56z"/>
</g>
</svg>
